<?xml version="1.0" standalone="no"?>
<svg viewBox="0 0 200 200" xmlns="http://www.w3.org/2000/svg">
  <path fill="#DEEBF8" d="M43.2,-71.9C56.8,-67,69.3,-57.1,72.3,-44.3C75.3,-31.4,68.9,-15.7,67.1,-1C65.3,13.6,68.1,27.3,64.6,39.2C61.1,51.2,51.2,61.4,39.4,67.9C27.6,74.4,13.8,77.1,1.6,74.4C-10.7,71.7,-21.4,63.6,-34.7,58C-48,52.4,-64,49.3,-69.6,40C-75.2,30.8,-70.4,15.4,-67.6,1.6C-64.8,-12.2,-64,-24.3,-60.9,-38C-57.9,-51.6,-52.5,-66.6,-42,-73.3C-31.4,-80.1,-15.7,-78.4,-0.5,-77.6C14.8,-76.8,29.6,-76.8,43.2,-71.9Z" transform="translate(100 100)" />
</svg>
