<?xml version="1.0" standalone="no"?>
<svg viewBox="0 0 200 200" xmlns="http://www.w3.org/2000/svg">
  <path fill="#FFFAD1" d="M36.4,-60.3C50,-55.1,65.9,-51.2,76.4,-41.3C86.8,-31.5,91.8,-15.7,89.6,-1.3C87.3,13.1,77.8,26.3,69.5,39.9C61.3,53.6,54.3,67.9,43,75.5C31.6,83.2,15.8,84.2,1.2,82.2C-13.4,80.2,-26.9,75,-38.5,67.5C-50.1,60,-60,50.1,-69,38.5C-78.1,26.9,-86.4,13.4,-88.5,-1.2C-90.6,-15.9,-86.6,-31.8,-76,-40.8C-65.5,-49.9,-48.4,-52.2,-34.7,-57.3C-20.9,-62.5,-10.5,-70.6,0.4,-71.3C11.4,-72.1,22.7,-65.6,36.4,-60.3Z" transform="translate(100 100)" />
</svg>
